<?xml version="1.0" encoding="iso-8859-1"?>
<!-- Uploaded to: SVG Repo, www.svgrepo.com, Generator: SVG Repo Mixer Tools -->
<svg fill="#000000" height="800px" width="800px" version="1.1" id="Layer_1" xmlns="http://www.w3.org/2000/svg" xmlns:xlink="http://www.w3.org/1999/xlink" 
	 viewBox="0 0 512 512" xml:space="preserve">
<g>
	<g>
		<path d="M256,0C114.837,0,0,114.837,0,256s114.837,256,256,256s256-114.837,256-256S397.163,0,256,0z M377.749,228.416
			L271.083,335.083c-4.16,4.16-9.621,6.251-15.083,6.251c-5.462,0-10.923-2.091-15.083-6.251L134.251,228.416
			c-8.341-8.341-8.341-21.824,0-30.165s21.824-8.341,30.165,0L256,289.835l91.584-91.584c8.341-8.341,21.824-8.341,30.165,0
			C386.091,206.592,386.091,220.075,377.749,228.416z"/>
	</g>
</g>
</svg>